<mxfile host="app.diagrams.net" agent="Mozilla/5.0 (X11; Linux x86_64) AppleWebKit/537.36 (KHTML, like Gecko) Chrome/127.0.0.0 Safari/537.36" version="27.0.9">
  <diagram name="PÃ¡gina-1" id="Iluj3TlLDqOjrfmmOVur">
    <mxGraphModel dx="727" dy="357" grid="1" gridSize="10" guides="1" tooltips="1" connect="1" arrows="1" fold="1" page="1" pageScale="1" pageWidth="827" pageHeight="1169" math="0" shadow="0">
      <root>
        <mxCell id="0" />
        <mxCell id="1" parent="0" />
        <mxCell id="ejkGttRAU2ZN-7YcUz0B-22" style="edgeStyle=orthogonalEdgeStyle;rounded=0;orthogonalLoop=1;jettySize=auto;html=1;endArrow=none;startFill=0;startArrow=block;dashed=1;" edge="1" parent="1" source="ejkGttRAU2ZN-7YcUz0B-2" target="ejkGttRAU2ZN-7YcUz0B-10">
          <mxGeometry relative="1" as="geometry" />
        </mxCell>
        <mxCell id="ejkGttRAU2ZN-7YcUz0B-23" style="edgeStyle=orthogonalEdgeStyle;rounded=0;orthogonalLoop=1;jettySize=auto;html=1;entryX=0.5;entryY=0;entryDx=0;entryDy=0;endArrow=none;startFill=0;startArrow=block;dashed=1;" edge="1" parent="1" source="ejkGttRAU2ZN-7YcUz0B-2" target="ejkGttRAU2ZN-7YcUz0B-14">
          <mxGeometry relative="1" as="geometry" />
        </mxCell>
        <mxCell id="ejkGttRAU2ZN-7YcUz0B-2" value="&amp;lt;&amp;lt; Interface &amp;gt;&amp;gt;&lt;br&gt;ArtService" style="swimlane;fontStyle=0;childLayout=stackLayout;horizontal=1;startSize=40;fillColor=none;horizontalStack=0;resizeParent=1;resizeParentMax=0;resizeLast=0;collapsible=1;marginBottom=0;whiteSpace=wrap;html=1;" vertex="1" parent="1">
          <mxGeometry x="320" y="80" width="170" height="66" as="geometry" />
        </mxCell>
        <mxCell id="ejkGttRAU2ZN-7YcUz0B-28" style="edgeStyle=orthogonalEdgeStyle;rounded=0;orthogonalLoop=1;jettySize=auto;html=1;entryX=-0.001;entryY=0.31;entryDx=0;entryDy=0;entryPerimeter=0;startArrow=diamond;startFill=0;" edge="1" parent="ejkGttRAU2ZN-7YcUz0B-2" target="ejkGttRAU2ZN-7YcUz0B-2">
          <mxGeometry relative="1" as="geometry">
            <mxPoint x="-99" y="265" as="sourcePoint" />
            <mxPoint x="-0.01999999999998181" y="11.153999999999996" as="targetPoint" />
            <Array as="points">
              <mxPoint x="-129" y="265" />
              <mxPoint x="-129" y="20" />
              <mxPoint y="20" />
            </Array>
          </mxGeometry>
        </mxCell>
        <mxCell id="ejkGttRAU2ZN-7YcUz0B-4" value="+ getArtDetails(artId: int): Art" style="text;strokeColor=none;fillColor=none;align=left;verticalAlign=top;spacingLeft=4;spacingRight=4;overflow=hidden;rotatable=0;points=[[0,0.5],[1,0.5]];portConstraint=eastwest;whiteSpace=wrap;html=1;" vertex="1" parent="ejkGttRAU2ZN-7YcUz0B-2">
          <mxGeometry y="40" width="170" height="26" as="geometry" />
        </mxCell>
        <mxCell id="ejkGttRAU2ZN-7YcUz0B-10" value="RealArtService" style="swimlane;fontStyle=1;align=center;verticalAlign=top;childLayout=stackLayout;horizontal=1;startSize=26;horizontalStack=0;resizeParent=1;resizeParentMax=0;resizeLast=0;collapsible=1;marginBottom=0;whiteSpace=wrap;html=1;" vertex="1" parent="1">
          <mxGeometry x="430" y="280" width="170" height="86" as="geometry" />
        </mxCell>
        <mxCell id="ejkGttRAU2ZN-7YcUz0B-11" value="..." style="text;strokeColor=none;fillColor=none;align=left;verticalAlign=top;spacingLeft=4;spacingRight=4;overflow=hidden;rotatable=0;points=[[0,0.5],[1,0.5]];portConstraint=eastwest;whiteSpace=wrap;html=1;" vertex="1" parent="ejkGttRAU2ZN-7YcUz0B-10">
          <mxGeometry y="26" width="170" height="26" as="geometry" />
        </mxCell>
        <mxCell id="ejkGttRAU2ZN-7YcUz0B-12" value="" style="line;strokeWidth=1;fillColor=none;align=left;verticalAlign=middle;spacingTop=-1;spacingLeft=3;spacingRight=3;rotatable=0;labelPosition=right;points=[];portConstraint=eastwest;strokeColor=inherit;" vertex="1" parent="ejkGttRAU2ZN-7YcUz0B-10">
          <mxGeometry y="52" width="170" height="8" as="geometry" />
        </mxCell>
        <mxCell id="ejkGttRAU2ZN-7YcUz0B-13" value="+ getArtDetails(artId: int): Art" style="text;strokeColor=none;fillColor=none;align=left;verticalAlign=top;spacingLeft=4;spacingRight=4;overflow=hidden;rotatable=0;points=[[0,0.5],[1,0.5]];portConstraint=eastwest;whiteSpace=wrap;html=1;" vertex="1" parent="ejkGttRAU2ZN-7YcUz0B-10">
          <mxGeometry y="60" width="170" height="26" as="geometry" />
        </mxCell>
        <mxCell id="ejkGttRAU2ZN-7YcUz0B-14" value="CachingArtProxy" style="swimlane;fontStyle=1;align=center;verticalAlign=top;childLayout=stackLayout;horizontal=1;startSize=26;horizontalStack=0;resizeParent=1;resizeParentMax=0;resizeLast=0;collapsible=1;marginBottom=0;whiteSpace=wrap;html=1;" vertex="1" parent="1">
          <mxGeometry x="220" y="280" width="180" height="130" as="geometry" />
        </mxCell>
        <mxCell id="ejkGttRAU2ZN-7YcUz0B-32" value="- service: ArtService" style="text;strokeColor=none;fillColor=none;align=left;verticalAlign=top;spacingLeft=4;spacingRight=4;overflow=hidden;rotatable=0;points=[[0,0.5],[1,0.5]];portConstraint=eastwest;whiteSpace=wrap;html=1;" vertex="1" parent="ejkGttRAU2ZN-7YcUz0B-14">
          <mxGeometry y="26" width="180" height="26" as="geometry" />
        </mxCell>
        <mxCell id="ejkGttRAU2ZN-7YcUz0B-15" value="- cacheExpirationTime: long" style="text;strokeColor=none;fillColor=none;align=left;verticalAlign=top;spacingLeft=4;spacingRight=4;overflow=hidden;rotatable=0;points=[[0,0.5],[1,0.5]];portConstraint=eastwest;whiteSpace=wrap;html=1;" vertex="1" parent="ejkGttRAU2ZN-7YcUz0B-14">
          <mxGeometry y="52" width="180" height="26" as="geometry" />
        </mxCell>
        <mxCell id="ejkGttRAU2ZN-7YcUz0B-16" value="" style="line;strokeWidth=1;fillColor=none;align=left;verticalAlign=middle;spacingTop=-1;spacingLeft=3;spacingRight=3;rotatable=0;labelPosition=right;points=[];portConstraint=eastwest;strokeColor=inherit;" vertex="1" parent="ejkGttRAU2ZN-7YcUz0B-14">
          <mxGeometry y="78" width="180" height="8" as="geometry" />
        </mxCell>
        <mxCell id="ejkGttRAU2ZN-7YcUz0B-17" value="+ CachingArtProxy(realService: RealArtService)" style="text;strokeColor=none;fillColor=none;align=left;verticalAlign=top;spacingLeft=4;spacingRight=4;overflow=hidden;rotatable=0;points=[[0,0.5],[1,0.5]];portConstraint=eastwest;whiteSpace=wrap;html=1;" vertex="1" parent="ejkGttRAU2ZN-7YcUz0B-14">
          <mxGeometry y="86" width="180" height="44" as="geometry" />
        </mxCell>
        <mxCell id="ejkGttRAU2ZN-7YcUz0B-30" style="edgeStyle=orthogonalEdgeStyle;rounded=0;orthogonalLoop=1;jettySize=auto;html=1;entryX=1.001;entryY=0.381;entryDx=0;entryDy=0;entryPerimeter=0;" edge="1" parent="1" source="ejkGttRAU2ZN-7YcUz0B-29" target="ejkGttRAU2ZN-7YcUz0B-2">
          <mxGeometry relative="1" as="geometry">
            <Array as="points">
              <mxPoint x="540" y="105" />
            </Array>
          </mxGeometry>
        </mxCell>
        <mxCell id="ejkGttRAU2ZN-7YcUz0B-29" value="Client" style="html=1;whiteSpace=wrap;" vertex="1" parent="1">
          <mxGeometry x="550" y="80" width="110" height="50" as="geometry" />
        </mxCell>
      </root>
    </mxGraphModel>
  </diagram>
</mxfile>
